<?xml version="1.0" standalone="no"?>
<!DOCTYPE svg PUBLIC "-//W3C//DTD SVG 20010904//EN"
 "http://www.w3.org/TR/2001/REC-SVG-20010904/DTD/svg10.dtd">
<svg version="1.0" xmlns="http://www.w3.org/2000/svg"
 width="217.000000pt" height="299.000000pt" viewBox="0 0 217.000000 299.000000"
 preserveAspectRatio="xMidYMid meet">

<g transform="translate(0.000000,299.000000) scale(0.100000,-0.100000)"
fill="#000000" stroke="none">
<path d="M1071 2488 c-7 -24 -42 -117 -78 -208 -176 -441 -327 -717 -487 -887
l-74 -79 90 -114 c175 -224 308 -440 324 -527 l6 -33 269 0 268 0 12 42 c16
61 72 169 142 273 64 97 204 283 245 328 l26 27 -56 58 c-167 171 -350 501
-511 922 -41 107 -78 204 -83 215 -5 12 -11 -254 -14 -657 l-5 -676 -25 -27
c-77 -83 -198 -71 -254 24 -40 69 -16 161 55 209 30 21 42 23 102 19 l67 -6 0
570 c0 313 -2 569 -3 569 -2 0 -9 -19 -16 -42z"/>
<path d="M860 580 c-8 -14 -8 -26 0 -40 11 -20 19 -20 268 -18 l257 3 3 29 c2
16 -2 32 -10 37 -7 5 -124 9 -260 9 -237 0 -248 -1 -258 -20z"/>
<path d="M867 483 c-11 -11 -8 -48 5 -61 9 -9 79 -12 254 -12 260 0 269 2 262
52 l-3 23 -256 3 c-140 1 -258 -1 -262 -5z"/>
</g>
</svg>
